<svg width="125" height="40" fill="none" xmlns="http://www.w3.org/2000/svg"><path d="M44.776 22.173h-4.39l-1.053 3.113h-1.86l4.159-11.516h1.931l4.158 11.516H45.83l-1.054-3.113zm-3.935-1.436h3.48l-1.716-5.051h-.048l-1.716 5.051zm15.849.352c0 2.61-1.396 4.286-3.503 4.286a2.846 2.846 0 01-2.641-1.468h-.04v4.157h-1.724V16.891h1.668v1.397h.032a2.975 2.975 0 012.674-1.485c2.13 0 3.535 1.684 3.535 4.286zm-1.77 0c0-1.7-.878-2.817-2.22-2.817-1.316 0-2.202 1.14-2.202 2.817 0 1.692.886 2.825 2.203 2.825 1.34 0 2.218-1.11 2.218-2.825zm11.005 0c0 2.61-1.397 4.286-3.503 4.286a2.846 2.846 0 01-2.642-1.468h-.04v4.157h-1.723V16.891h1.668v1.397h.032a2.975 2.975 0 012.673-1.485c2.13 0 3.535 1.684 3.535 4.286zm-1.772 0c0-1.7-.878-2.817-2.219-2.817-1.317 0-2.203 1.14-2.203 2.817 0 1.692.886 2.825 2.203 2.825 1.341 0 2.219-1.11 2.219-2.825zm3.161-7.319h1.723v11.517h-1.724V13.77zm10.694 9.051a3.369 3.369 0 01-3.616 2.57c-2.441 0-3.958-1.637-3.958-4.262 0-2.634 1.524-4.341 3.887-4.341 2.322 0 3.783 1.596 3.783 4.141v.591h-5.93v.104a2.188 2.188 0 002.259 2.378 1.9 1.9 0 001.94-1.181h1.635zm-5.826-2.506h4.198a2.017 2.017 0 00-2.06-2.13 2.124 2.124 0 00-2.138 2.13zm20.79 4.972V16.81h-.056l-3.472 8.388h-1.325l-3.48-8.388h-.054v8.476h-1.629V13.77h2.066l3.728 9.09h.065l3.718-9.09h2.076v11.517h-1.637zm10.815 0h-1.651v-1.445h-.041a2.621 2.621 0 01-2.601 1.54 2.797 2.797 0 01-2.944-3.104v-5.387h1.724v5.052c0 1.277.606 1.955 1.795 1.955a1.945 1.945 0 001.995-2.17v-4.837h1.724l-.001 8.396zm4.902-8.492c1.859 0 3.192 1.03 3.232 2.514h-1.619c-.073-.742-.702-1.197-1.66-1.197-.935 0-1.557.43-1.557 1.086 0 .502.415.837 1.286 1.053l1.412.327c1.692.407 2.33 1.03 2.33 2.26 0 1.516-1.436 2.553-3.487 2.553-1.979 0-3.313-1.013-3.439-2.546h1.707c.121.807.766 1.237 1.812 1.237 1.029 0 1.677-.423 1.677-1.094 0-.518-.32-.797-1.197-1.02l-1.501-.368c-1.516-.367-2.282-1.14-2.282-2.305-.002-1.486 1.33-2.5 3.286-2.5zm4.766-2.115a1.001 1.001 0 11.998.982.991.991 0 01-.998-.982zm.136 2.21h1.724v8.397h-1.724V16.89zm9.149 2.89a1.855 1.855 0 00-1.979-1.549c-1.324 0-2.202 1.11-2.202 2.858 0 1.787.885 2.866 2.219 2.866a1.807 1.807 0 001.963-1.51h1.659a3.356 3.356 0 01-3.639 2.947c-2.394 0-3.959-1.637-3.959-4.302 0-2.61 1.564-4.301 3.942-4.301a3.375 3.375 0 013.639 2.991h-1.643z" fill="#000"/><path fill-rule="evenodd" clip-rule="evenodd" d="M34 13.633v-1.218c0-.34 0-.68-.015-1.02a14.894 14.894 0 00-.197-2.232 7.516 7.516 0 00-.7-2.126 7.152 7.152 0 00-3.124-3.126 7.55 7.55 0 00-2.121-.699 14.94 14.94 0 00-2.234-.197c-.34-.01-.68-.013-1.02-.015H9.416c-.34 0-.68 0-1.02.015-.75.01-1.498.076-2.239.197a7.48 7.48 0 00-2.121.7A7.152 7.152 0 00.913 7.035a7.507 7.507 0 00-.699 2.123 14.94 14.94 0 00-.197 2.234c-.01.34-.014.68-.015 1.02L0 13.634V27.58c0 .34 0 .68.015 1.02.01.748.076 1.495.197 2.233.126.739.362 1.454.7 2.123a7.152 7.152 0 003.122 3.122 7.555 7.555 0 002.122.7c.738.122 1.485.187 2.234.195.34.01.68.014 1.02.016h15.158c.34 0 .68 0 1.02-.016a14.68 14.68 0 002.234-.195 7.51 7.51 0 002.123-.7 7.161 7.161 0 003.122-3.122 7.51 7.51 0 00.7-2.123c.122-.738.187-1.485.196-2.234.01-.34.013-.68.015-1.02V13.633H34z" fill="url(#paint0_linear)"/><path fill-rule="evenodd" clip-rule="evenodd" d="M24.036 8.193c-.082 0-.813.136-.901.155l-10.105 2.04c-.23.04-.447.137-.63.282-.19.17-.312.403-.34.656a2.402 2.402 0 00-.023.34v12.648a1.22 1.22 0 01-.224.827c-.19.213-.454.348-.738.377l-.66.133c-.635.105-1.26.263-1.87.474-.416.15-.794.392-1.103.709a2.691 2.691 0 00.135 3.796c.343.319.768.537 1.227.629.51.102 1.039.066 1.822-.092a3.75 3.75 0 001.182-.435 2.96 2.96 0 00.93-.862c.243-.35.411-.748.494-1.166.083-.412.12-.831.113-1.251V16.486c0-.588.17-.743.64-.85 0 0 8.4-1.7 8.793-1.77.546-.105.804.051.804.624v7.48c0 .296 0 .597-.206.85a1.14 1.14 0 01-.736.376l-.661.134a11.46 11.46 0 00-1.87.473c-.416.15-.794.392-1.103.709a2.644 2.644 0 00.134 3.796 2.55 2.55 0 001.227.624c.51.102 1.04.064 1.824-.092a3.737 3.737 0 001.18-.43c.369-.216.686-.51.93-.86a3.13 3.13 0 00.495-1.167c.077-.412.109-.833.095-1.252V9.085c-.002-.581-.308-.94-.855-.893z" fill="#fff"/><defs><linearGradient id="paint0_linear" x1="17" y1="36.866" x2="17" y2="3.731" gradientUnits="userSpaceOnUse"><stop stop-color="#FA233B"/><stop offset="1" stop-color="#FB5C74"/></linearGradient></defs></svg>