<svg xmlns="http://www.w3.org/2000/svg" viewBox="0 0 125 40"><g id="icons"><path fill="#FFF" d="M9 39.75C4.175 39.75.25 35.825.25 31V9C.25 4.175 4.175.25 9 .25h22.065c4.825 0 8.75 3.925 8.75 8.75v22c0 4.825-3.925 8.75-8.75 8.75H9z"/><path fill="#F7F7F7" d="M31.065.5c4.687 0 8.5 3.813 8.5 8.5v22c0 4.687-3.813 8.5-8.5 8.5H9C4.313 39.5.5 35.687.5 31V9C.5 4.313 4.313.5 9 .5h22.065m0-.5H9a9 9 0 00-9 9v22a9 9 0 009 9h22.065a9 9 0 009-9V9a9 9 0 00-9-9z"/><g transform="translate(91 73)"><path fill="#FF2A59" d="M-44.257-59.318v12.763h7.827c2.188 0 3.86-1.513 3.949-3.701.089-1.677-.694-2.662-2.17-3.246.978-.346 1.512-1.295 1.53-2.316.053-1.896-1.423-3.501-3.273-3.501h-7.863zm4.856 7.658h1.21c.64 0 .889.401.889.802s-.267.802-.889.802h-1.21v-1.604zm0-4.248h.907c.889 0 .836 1.331 0 1.331h-.907v-1.331zm7.58 2.935c.036 8.898 13.449 8.807 13.485 0-.036-8.916-13.45-8.934-13.485 0zm4.803-.018c.018-2.972 3.807-2.972 3.825 0-.018 2.936-3.807 2.954-3.825 0zm9.554.018c.036 8.898 13.449 8.807 13.485 0-.036-8.916-13.45-8.934-13.485 0zm4.803-.018c.018-2.972 3.807-2.972 3.825 0-.018 2.936-3.807 2.954-3.825 0zm13.841.638l1.868 2.954h1.708l1.868-2.954-.338 2.954v2.844h4.785v-12.763H6.392l-2.491 3.647-2.491-3.647h-4.696v12.763h4.803v-2.844l-.337-2.954z"/><linearGradient id="SVGID_1_" gradientUnits="userSpaceOnUse" x1="-230.173" y1="-363.644" x2="-230.534" y2="-364.005" gradientTransform="matrix(92.5101 0 0 -92.3594 21239.08 -33655.621)"><stop offset="0" stop-color="#ff271d"/><stop offset="1" stop-color="#ff2e8e"/></linearGradient><path fill="url(#SVGID_1_)" d="M-70.967-36.333c-9.22 0-16.694-7.462-16.694-16.667s7.474-16.667 16.694-16.667S-54.274-62.205-54.274-53s-7.474 16.667-16.693 16.667zm0-2.667c7.745 0 14.023-6.268 14.023-14s-6.278-14-14.023-14-14.023 6.268-14.023 14 6.278 14 14.023 14zm-5.676-20.667h8.456c1.99 0 3.596 1.766 3.538 3.761-.019 1.074-.611 1.992-1.663 2.357 1.588.614 2.444 1.52 2.349 3.284-.096 2.301-1.87 3.932-4.224 3.932h-8.456v-13.334zm5.14 3.761v1.368h1.372a.684.684 0 100-1.368h-1.372zm0 4.103v1.709h1.544a.855.855 0 000-1.71h-1.544z"/></g></g></svg>