<svg xmlns="http://www.w3.org/2000/svg" viewBox="0 0 125 40" enable-background="new 0 0 125 40"><g id="icons"><g id="Clipped"><defs><filter id="Adobe_OpacityMaskFilter" filterUnits="userSpaceOnUse" x="0" y="7.237" width="25.526" height="25.526"><feColorMatrix values="1 0 0 0 0 0 1 0 0 0 0 0 1 0 0 0 0 0 1 0"/></filter></defs><mask maskUnits="userSpaceOnUse" x="0" y="7.237" width="25.526" height="25.526" id="mask-2_1_"><g filter="url(#Adobe_OpacityMaskFilter)"><path id="path-1_1_" fill="#FFF" d="M0 7.237h25.526v25.526H0z"/></g></mask><g mask="url(#mask-2_1_)"><defs><filter id="Adobe_OpacityMaskFilter_1_" filterUnits="userSpaceOnUse" x="0" y="7.237" width="25.526" height="25.526"><feColorMatrix values="1 0 0 0 0 0 1 0 0 0 0 0 1 0 0 0 0 0 1 0"/></filter></defs><mask maskUnits="userSpaceOnUse" x="0" y="7.237" width="25.526" height="25.526" id="mask-4_1_"><g filter="url(#Adobe_OpacityMaskFilter_1_)"><path id="path-3_1_" fill="#FFF" d="M7.831 7.237c-.254 0-.507 0-.761.002-.256.001-.513.004-.77.011-.56.015-1.124.048-1.678.147a5.69 5.69 0 00-1.593.525 5.362 5.362 0 00-2.343 2.343 5.65 5.65 0 00-.525 1.595 11.223 11.223 0 00-.147 1.677c-.007.257-.01.513-.011.77-.003.245-.003.489-.003.734v9.919a89.55 89.55 0 00.013 1.503c.015.559.048 1.123.147 1.677.1.562.266 1.084.525 1.595a5.362 5.362 0 002.343 2.343c.51.26 1.033.424 1.594.525.553.099 1.118.133 1.677.147.257.007.513.01.77.011.254.002.507.002.761.002h9.865c.254 0 .507 0 .761-.002.257-.002.513-.004.77-.011.56-.015 1.124-.048 1.677-.147a5.664 5.664 0 001.594-.525 5.362 5.362 0 002.343-2.343 5.65 5.65 0 00.525-1.595c.099-.553.132-1.117.147-1.677.007-.257.01-.513.011-.77l.002-.734v-9.916c0-.244 0-.49-.002-.734a39.54 39.54 0 00-.011-.77 11.246 11.246 0 00-.147-1.677 5.66 5.66 0 00-.525-1.595 5.362 5.362 0 00-2.343-2.343 5.654 5.654 0 00-1.594-.525 11.103 11.103 0 00-1.677-.147 32.95 32.95 0 00-.77-.011c-.254-.002-.507-.002-.761-.002H7.831z"/></g></mask><linearGradient id="Rectangle-path_18_" gradientUnits="userSpaceOnUse" x1="-385.518" y1="-171.171" x2="-385.518" y2="-172.186" gradientTransform="matrix(25.164 0 0 -25.164 9713.928 -4300.14)"><stop offset="0" stop-color="#ef4db7"/><stop offset="1" stop-color="#c643fd"/></linearGradient><path id="Rectangle-path" mask="url(#mask-4_1_)" fill="url(#Rectangle-path_18_)" d="M0 7.237h25.526v25.526H0z"/></g></g><g id="Artboard-Copy-2"><g id="US_UK_iTunes_Store_Buy_Lockup_RGB_blk"><path id="Shape_3_" d="M31.391 14.125c0-.604.489-1.084 1.094-1.084.613 0 1.102.482 1.102 1.084 0 .594-.489 1.076-1.102 1.076a1.085 1.085 0 01-1.094-1.076zm.148 2.422h1.889v9.2h-1.889v-9.2zm6.916 9.201V14.815h-3.866v-1.688h9.681v1.688h-3.857v10.931h-1.959v.002zm13.708 0h-1.811v-1.583h-.044c-.524 1.102-1.442 1.688-2.851 1.688-2.002 0-3.227-1.294-3.227-3.402v-5.903h1.889v5.536c0 1.399.664 2.142 1.967 2.142 1.364 0 2.186-.944 2.186-2.379v-5.299h1.889v9.201h.002zm1.857-9.201h1.801v1.565h.045c.551-1.102 1.478-1.67 2.895-1.67 2.029 0 3.191 1.304 3.191 3.41v5.895h-1.898V20.22c0-1.382-.638-2.152-1.967-2.152-1.355 0-2.177.962-2.177 2.379v5.3h-1.889v-9.201h-.001zm17.634 6.498c-.254 1.671-1.881 2.816-3.961 2.816-2.676 0-4.338-1.793-4.338-4.67 0-2.886 1.671-4.758 4.259-4.758 2.545 0 4.145 1.749 4.145 4.539v.647h-6.497v.114c0 1.574.989 2.606 2.474 2.606 1.05 0 1.873-.498 2.126-1.294h1.792zm-6.383-2.746h4.599c-.044-1.408-.944-2.335-2.256-2.335-1.303 0-2.247.945-2.343 2.335zm11.381-3.857c2.038 0 3.498 1.128 3.541 2.754h-1.775c-.078-.814-.77-1.312-1.819-1.312-1.024 0-1.706.472-1.706 1.189 0 .551.454.918 1.409 1.154l1.547.359c1.854.445 2.554 1.128 2.554 2.475 0 1.662-1.574 2.799-3.822 2.799-2.169 0-3.629-1.111-3.77-2.79h1.872c.132.884.84 1.355 1.985 1.355 1.128 0 1.837-.464 1.837-1.198 0-.569-.35-.874-1.312-1.12l-1.644-.402c-1.662-.402-2.501-1.251-2.501-2.528.001-1.625 1.461-2.735 3.604-2.735zm10.445 5.79c.14 1.251 1.355 2.072 3.018 2.072 1.591 0 2.737-.823 2.737-1.951 0-.979-.692-1.565-2.326-1.967l-1.635-.394c-2.318-.56-3.394-1.644-3.394-3.402 0-2.178 1.898-3.673 4.591-3.673 2.668 0 4.496 1.495 4.557 3.673h-1.907c-.114-1.26-1.154-2.021-2.676-2.021s-2.562.77-2.562 1.889c0 .892.664 1.416 2.292 1.819l1.391.341c2.589.613 3.664 1.652 3.664 3.499 0 2.362-1.881 3.84-4.872 3.84-2.799 0-4.688-1.443-4.809-3.726h1.933v.001zm11.721-7.863v2.178h1.749v1.495h-1.749v5.072c0 .787.35 1.154 1.12 1.154.192 0 .498-.026.621-.044v1.486c-.21.053-.63.087-1.05.087-1.862 0-2.589-.7-2.589-2.483V18.04h-1.338v-1.495h1.338v-2.178h1.898v.002zm2.525 6.778c0-2.895 1.706-4.714 4.365-4.714 2.667 0 4.364 1.819 4.364 4.714 0 2.903-1.688 4.714-4.364 4.714-2.677 0-4.365-1.81-4.365-4.714zm6.805 0c0-1.985-.909-3.157-2.44-3.157s-2.44 1.181-2.44 3.157c0 1.993.909 3.157 2.44 3.157s2.44-1.163 2.44-3.157zm3.379-4.6h1.801v1.565h.045c.288-1.041 1.127-1.662 2.212-1.662.272 0 .498.036.647.07v1.766c-.148-.061-.481-.114-.848-.114-1.215 0-1.967.822-1.967 2.116v5.456h-1.889v-9.199h-.001zm13.368 6.498c-.254 1.671-1.881 2.816-3.961 2.816-2.676 0-4.338-1.793-4.338-4.67 0-2.886 1.671-4.758 4.259-4.758 2.545 0 4.145 1.749 4.145 4.539v.647h-6.497v.114c0 1.574.989 2.606 2.474 2.606 1.05 0 1.873-.498 2.126-1.294h1.792zm-6.384-2.746h4.599c-.044-1.408-.944-2.335-2.256-2.335-1.302 0-2.247.945-2.343 2.335z"/><g id="Group_2_"><g id="Clipped_2_"><defs><filter id="Adobe_OpacityMaskFilter_2_" filterUnits="userSpaceOnUse" x="12.758" y="21.649" width="5.967" height="6.798"><feColorMatrix values="1 0 0 0 0 0 1 0 0 0 0 0 1 0 0 0 0 0 1 0"/></filter></defs><mask maskUnits="userSpaceOnUse" x="12.758" y="21.649" width="5.967" height="6.798" id="mask-12_2_"><g filter="url(#Adobe_OpacityMaskFilter_2_)"><path id="path-11_2_" fill="#FFF" d="M0 7.237h25.526v25.526H0z"/></g></mask><g mask="url(#mask-12_2_)"><g transform="translate(12 14)"><defs><filter id="Adobe_OpacityMaskFilter_3_" filterUnits="userSpaceOnUse" x=".758" y="7.649" width="5.967" height="6.798"><feColorMatrix values="1 0 0 0 0 0 1 0 0 0 0 0 1 0 0 0 0 0 1 0"/></filter></defs><mask maskUnits="userSpaceOnUse" x=".758" y="7.649" width="5.967" height="6.798" id="mask-14_2_"><g filter="url(#Adobe_OpacityMaskFilter_3_)"><path id="path-13_2_" fill="#FFF" d="M.758 10.532l4.466 3.244c.236.172.478.338.724.497.084.055.173.1.268.133l.034.011a.55.55 0 00.191.025.28.28 0 00.248-.182.567.567 0 00.036-.189v-.036a1.146 1.146 0 00-.044-.296 15.336 15.336 0 00-.249-.842l-1.706-5.25-3.968 2.885z"/></g></mask><radialGradient id="Rectangle-path_19_" cx="-347.698" cy="-304.215" r=".004" gradientTransform="matrix(5.882 0 0 -5.882 2033.725 -1778.863)" gradientUnits="userSpaceOnUse"><stop offset="0" stop-color="#f9e3fb"/><stop offset=".746" stop-color="#f9e3fb"/><stop offset=".81" stop-color="#f8defb"/><stop offset=".883" stop-color="#f3d0fa"/><stop offset=".96" stop-color="#ecbaf9"/><stop offset=".981" stop-color="#eab2f9"/><stop offset="1" stop-color="#eab2f9"/></radialGradient><path id="Rectangle-path_2_" mask="url(#mask-14_2_)" fill="url(#Rectangle-path_19_)" d="M.758 7.649h5.967v6.798H.758z"/></g></g></g><g id="Clipped_3_"><defs><filter id="Adobe_OpacityMaskFilter_4_" filterUnits="userSpaceOnUse" x="3.301" y="16.984" width="7.003" height="4.665"><feColorMatrix values="1 0 0 0 0 0 1 0 0 0 0 0 1 0 0 0 0 0 1 0"/></filter></defs><mask maskUnits="userSpaceOnUse" x="3.301" y="16.984" width="7.003" height="4.665" id="mask-17_2_"><g filter="url(#Adobe_OpacityMaskFilter_4_)"><path id="path-16_2_" fill="#FFF" d="M0 7.237h25.526v25.526H0z"/></g></mask><g mask="url(#mask-17_2_)"><g transform="translate(3 9)"><defs><filter id="Adobe_OpacityMaskFilter_5_" filterUnits="userSpaceOnUse" x=".301" y="7.984" width="7.003" height="4.665"><feColorMatrix values="1 0 0 0 0 0 1 0 0 0 0 0 1 0 0 0 0 0 1 0"/></filter></defs><mask maskUnits="userSpaceOnUse" x=".301" y="7.984" width="7.003" height="4.665" id="mask-19_2_"><g filter="url(#Adobe_OpacityMaskFilter_5_)"><path id="path-18_2_" fill="#FFF" d="M1.785 7.984c-.292 0-.585.008-.877.023a1.148 1.148 0 00-.329.062.514.514 0 00-.169.092.287.287 0 00-.091.132.298.298 0 00-.004.16.523.523 0 00.082.173l.021.029c.06.08.131.151.209.214.227.185.46.363.696.535l4.465 3.245 1.516-4.665H1.785z"/></g></mask><radialGradient id="Rectangle-path_20_" cx="-319.355" cy="-339.825" r=".006" gradientTransform="matrix(4.599 0 0 -4.599 1456.844 -1564.647)" gradientUnits="userSpaceOnUse"><stop offset="0" stop-color="#fae1f8"/><stop offset=".6" stop-color="#fae1f8"/><stop offset=".85" stop-color="#f7d6f7"/><stop offset="1" stop-color="#f7d6f7"/></radialGradient><path id="Rectangle-path_3_" mask="url(#mask-19_2_)" fill="url(#Rectangle-path_20_)" d="M.301 7.984h7.003v4.665H.301z"/></g></g></g><g id="Clipped_4_"><defs><filter id="Adobe_OpacityMaskFilter_6_" filterUnits="userSpaceOnUse" x="6.791" y="21.649" width="5.967" height="6.798"><feColorMatrix values="1 0 0 0 0 0 1 0 0 0 0 0 1 0 0 0 0 0 1 0"/></filter></defs><mask maskUnits="userSpaceOnUse" x="6.791" y="21.649" width="5.967" height="6.798" id="mask-22_2_"><g filter="url(#Adobe_OpacityMaskFilter_6_)"><path id="path-21_2_" fill="#FFF" d="M0 7.237h25.526v25.526H0z"/></g></mask><g mask="url(#mask-22_2_)"><g transform="translate(6 14)"><defs><filter id="Adobe_OpacityMaskFilter_7_" filterUnits="userSpaceOnUse" x=".791" y="7.649" width="5.967" height="6.798"><feColorMatrix values="1 0 0 0 0 0 1 0 0 0 0 0 1 0 0 0 0 0 1 0"/></filter></defs><mask maskUnits="userSpaceOnUse" x=".791" y="7.649" width="5.967" height="6.798" id="mask-24_2_"><g filter="url(#Adobe_OpacityMaskFilter_7_)"><path id="path-23_2_" fill="#FFF" d="M1.084 12.899c-.09.278-.173.559-.249.842a1.283 1.283 0 00-.044.296v.036a.501.501 0 00.036.189c.022.054.055.097.097.128s.093.049.151.054a.508.508 0 00.191-.025l.034-.011c.094-.032.185-.078.268-.133.245-.159.487-.325.723-.497l4.466-3.245-2.519-1.83-1.449-1.056-1.705 5.252z"/></g></mask><radialGradient id="Rectangle-path_21_" cx="-337.365" cy="-305.686" r=".004" gradientTransform="matrix(5.882 0 0 -5.882 1998.551 -1777.677)" gradientUnits="userSpaceOnUse"><stop offset="0" stop-color="#fae9fc"/><stop offset=".669" stop-color="#fae9fc"/><stop offset=".812" stop-color="#f8defa"/><stop offset=".91" stop-color="#f6d4f8"/><stop offset="1" stop-color="#f6d4f8"/></radialGradient><path id="Rectangle-path_4_" mask="url(#mask-24_2_)" fill="url(#Rectangle-path_21_)" d="M.791 7.649h5.967v6.798H.791z"/></g></g></g><g id="Clipped_5_"><defs><filter id="Adobe_OpacityMaskFilter_8_" filterUnits="userSpaceOnUse" x="15.21" y="16.983" width="7.004" height="4.665"><feColorMatrix values="1 0 0 0 0 0 1 0 0 0 0 0 1 0 0 0 0 0 1 0"/></filter></defs><mask maskUnits="userSpaceOnUse" x="15.21" y="16.983" width="7.004" height="4.665" id="mask-27_2_"><g filter="url(#Adobe_OpacityMaskFilter_8_)"><path id="path-26_2_" fill="#FFF" d="M0 7.237h25.526v25.526H0z"/></g></mask><g mask="url(#mask-27_2_)"><g transform="translate(14 9)"><defs><filter id="Adobe_OpacityMaskFilter_9_" filterUnits="userSpaceOnUse" x="1.21" y="7.983" width="7.004" height="4.665"><feColorMatrix values="1 0 0 0 0 0 1 0 0 0 0 0 1 0 0 0 0 0 1 0"/></filter></defs><mask maskUnits="userSpaceOnUse" x="1.21" y="7.983" width="7.004" height="4.665" id="mask-29_2_"><g filter="url(#Adobe_OpacityMaskFilter_9_)"><path id="path-28_2_" fill="#FFF" d="M1.211 7.984l1.516 4.665 4.466-3.245c.236-.172.469-.35.696-.535a1.21 1.21 0 00.209-.214l.021-.029a.495.495 0 00.082-.173.298.298 0 00-.004-.16.292.292 0 00-.091-.132.53.53 0 00-.168-.092l-.034-.011a1.274 1.274 0 00-.295-.05 15.087 15.087 0 00-.878-.024h-5.52z"/></g></mask><radialGradient id="Rectangle-path_22_" cx="-327.82" cy="-345.731" r=".006" gradientTransform="matrix(4.599 0 0 -4.599 1513.81 -1564.648)" gradientUnits="userSpaceOnUse"><stop offset="0" stop-color="#fae9fb"/><stop offset=".68" stop-color="#fae9fb"/><stop offset=".813" stop-color="#f8def8"/><stop offset=".98" stop-color="#f5caf2"/><stop offset="1" stop-color="#f5caf2"/></radialGradient><path id="Rectangle-path_5_" mask="url(#mask-29_2_)" fill="url(#Rectangle-path_22_)" d="M1.21 7.983h7.004v4.665H1.21z"/></g></g></g><g id="Clipped_6_"><defs><filter id="Adobe_OpacityMaskFilter_10_" filterUnits="userSpaceOnUse" x="8.789" y="16.984" width="7.938" height="7.548"><feColorMatrix values="1 0 0 0 0 0 1 0 0 0 0 0 1 0 0 0 0 0 1 0"/></filter></defs><mask maskUnits="userSpaceOnUse" x="8.789" y="16.984" width="7.938" height="7.548" id="mask-32_2_"><g filter="url(#Adobe_OpacityMaskFilter_10_)"><path id="path-31_2_" fill="#FFF" d="M0 7.237h25.526v25.526H0z"/></g></mask><path id="Shape_2_" mask="url(#mask-32_2_)" fill="#FFF" d="M10.305 16.984l-1.516 4.665 1.45 1.053 2.519 1.83 3.969-2.883-1.516-4.665z"/></g></g></g></g><g id="Clipped_1_"><defs><filter id="Adobe_OpacityMaskFilter_11_" filterUnits="userSpaceOnUse" x="10.305" y="10.435" width="4.906" height="6.549"><feColorMatrix values="1 0 0 0 0 0 1 0 0 0 0 0 1 0 0 0 0 0 1 0"/></filter></defs><mask maskUnits="userSpaceOnUse" x="10.305" y="10.435" width="4.906" height="6.549" id="mask-7_2_"><g filter="url(#Adobe_OpacityMaskFilter_11_)"><path id="path-6_2_" fill="#FFF" d="M0 7.237h25.526v25.526H0z"/></g></mask><g mask="url(#mask-7_2_)"><g transform="translate(10 3)"><defs><filter id="Adobe_OpacityMaskFilter_12_" filterUnits="userSpaceOnUse" x=".305" y="7.435" width="4.906" height="6.549"><feColorMatrix values="1 0 0 0 0 0 1 0 0 0 0 0 1 0 0 0 0 0 1 0"/></filter></defs><mask maskUnits="userSpaceOnUse" x=".305" y="7.435" width="4.906" height="6.549" id="mask-9_2_"><g filter="url(#Adobe_OpacityMaskFilter_12_)"><path id="path-8_2_" fill="#FFF" d="M2.604 7.481a.52.52 0 00-.139.132l-.021.028a1.176 1.176 0 00-.139.265c-.106.273-.203.549-.293.827L.306 13.984h4.906L3.505 8.733c-.09-.278-.189-.554-.293-.827a1.24 1.24 0 00-.139-.265l-.021-.028a.508.508 0 00-.14-.132c-.05-.03-.101-.046-.154-.046s-.104.015-.154.046"/></g></mask><radialGradient id="Rectangle-path_23_" cx="-330.857" cy="-328.423" r=".005" gradientTransform="matrix(4.836 0 0 -4.836 1590.59 -1566.73)" gradientUnits="userSpaceOnUse"><stop offset="0" stop-color="#fbe3f8"/><stop offset=".745" stop-color="#fbe3f8"/><stop offset=".808" stop-color="#fadef6"/><stop offset=".88" stop-color="#f9d1f0"/><stop offset=".955" stop-color="#f6bae7"/><stop offset=".98" stop-color="#f5b1e3"/><stop offset="1" stop-color="#f5b1e3"/></radialGradient><path id="Rectangle-path_1_" mask="url(#mask-9_2_)" fill="url(#Rectangle-path_23_)" d="M.305 7.435h4.906v6.549H.305z"/></g></g></g></g></svg>