<svg version="1.1" id="logos" xmlns="http://www.w3.org/2000/svg" x="0" y="0" viewBox="0 0 125 40" xml:space="preserve"><path fill="#FFF" d="M25.485 9.981c-.613-1.516-1.838-2.667-3.329-3.136a10.653 10.653 0 00-3.109-.342H7.19a10.66 10.66 0 00-3.085.339C2.597 7.315 1.37 8.471.766 9.97a11.017 11.017 0 00-.505 3.815v12.444a10.996 10.996 0 00.497 3.779c.612 1.522 1.839 2.677 3.334 3.147 1.012.266 2.055.381 3.109.342h11.857a10.653 10.653 0 003.085-.339c1.508-.473 2.735-1.629 3.339-3.128a11.02 11.02 0 00.505-3.816V13.77a10.991 10.991 0 00-.502-3.789z"/><path fill="#E5E5E5" d="M6.801 33.755c-.933 0-1.866-.12-2.773-.358-1.588-.499-2.861-1.699-3.503-3.296a11.18 11.18 0 01-.515-3.883V13.785a11.222 11.222 0 01.517-3.892C1.17 8.293 2.445 7.1 4.03 6.602c1.04-.272 2.099-.39 3.17-.35h11.847a10.864 10.864 0 013.173.351c1.583.497 2.855 1.693 3.499 3.285l.007.019c.397 1.253.57 2.558.513 3.876v12.433a11.196 11.196 0 01-.518 3.892c-.644 1.601-1.918 2.793-3.503 3.292-1.04.272-2.1.393-3.169.35H7.202c-.134.003-.267.005-.401.005zM6.799 6.747c-.894 0-1.774.113-2.63.337-1.429.45-2.589 1.537-3.17 2.979a10.765 10.765 0 00-.487 3.711v12.455a10.805 10.805 0 00.486 3.703c.579 1.439 1.736 2.533 3.169 2.983.977.256 2 .364 3.025.331h11.866c1.035.04 2.042-.073 3.021-.33 1.429-.449 2.588-1.536 3.169-2.979.375-1.183.542-2.437.487-3.711V13.771a10.74 10.74 0 00-.487-3.705c-.588-1.447-1.743-2.533-3.168-2.981a10.456 10.456 0 00-3.024-.331H7.19c-.13-.004-.261-.007-.391-.007z"/><ellipse fill="#FC0" cx="13.19" cy="22.16" rx="8.141" ry="8.202"/><path fill="#F33" d="M17.267 13.8v7.673l-.018.006v.01c0 .75-.054 1.45-.155 1.808a4.067 4.067 0 01-3.916 2.965c-2.248 0-4.047-1.83-4.047-4.095s1.799-4.095 4.047-4.095a4.04 4.04 0 012.748 1.076c.237.218.448.464.628.733a4.199 4.199 0 01-.099-.802V9.854l5.298 1.636v3.704L17.267 13.8z"/><path fill-rule="evenodd" clip-rule="evenodd" fill="#222" d="M122.246 28.41c1.557 0 2.395-1.304 2.395-1.304l.359.942s-.886 1.353-2.778 1.353c-2.419 0-3.808-2.343-3.808-6.305 0-4.01 1.365-6.353 3.832-6.353 1.245 0 2.108.483 2.635 1.135l-.311 1.208c-.527-.749-1.293-1.377-2.323-1.377-1.844 0-2.706 1.957-2.706 5.387-.001 3.333.837 5.314 2.705 5.314zm-7.185-11.426h1.126v12.175h-1.126V16.984zm.575-2.392a.76.76 0 01-.766-.773c0-.411.335-.797.766-.797.407 0 .766.387.766.797a.774.774 0 01-.766.773zm-5.437 14.809c-1.341 0-2.108-.459-2.563-.845l.24-.99c.575.507 1.15.918 2.299.918 1.198 0 1.916-.942 1.916-1.981 0-2.778-4.143-3.962-4.143-7.054 0-1.836 1.317-2.706 2.635-2.706 1.174 0 1.916.435 2.323.773l-.311 1.039c-.527-.58-1.126-.894-1.964-.894-.886 0-1.677.58-1.677 1.643 0 2.633 4.191 3.648 4.191 7.054 0 1.931-1.365 3.043-2.946 3.043zm-8.095-.967c1.221 0 2.084-1.015 2.682-2.561v-8.89h1.126v12.175h-1.03l-.048-2.005h-.048c-.335.87-1.221 2.247-2.874 2.247-1.605 0-2.515-1.184-2.515-3.358v-9.059h1.126v8.914c0 1.692.503 2.537 1.581 2.537zM88.333 13.819c0 .942-.024 2.343-.072 3.527l-.503 11.813h-.982l.742-17.272h1.317l2.563 10.653a16.1 16.1 0 01.407 2.392h.048c.072-.725.216-1.546.431-2.392l2.635-10.653h1.341l.742 17.272h-1.15L95.35 17.25c-.072-1.353-.048-2.392-.048-3.454h-.072c-.144 1.087-.311 2.102-.575 3.116l-2.395 9.542h-.934l-2.371-9.542a20.45 20.45 0 01-.551-3.092h-.071zm-8.598 3.165h1.82l-2.251 5.701 2.515 6.474h-1.94l-1.868-5.025-1.82 5.025h-1.844l2.515-6.305-2.275-5.87h1.94l1.557 4.421 1.651-4.421zm-9.629 1.377c-1.15 0-1.557 1.425-1.677 3.599h3.09c.001-2.077-.335-3.599-1.413-3.599zm3.282 9.977c-.766.604-1.7.99-2.898.99-2.491 0-4.024-2.005-4.024-5.749 0-3.913 1.078-6.764 3.64-6.764 2.012 0 3.329 1.522 3.329 5.653v1.039h-5.03c0 2.754.766 4.203 2.251 4.203 1.054 0 1.82-.483 2.299-.821l.433 1.449zM62.73 26.792v-7.851c-.383-.387-.79-.58-1.413-.58-1.509 0-2.227 2.295-2.227 4.783 0 2.851.527 4.59 1.892 4.59.933 0 1.436-.459 1.748-.942zm-1.964 2.536c-2.371 0-3.664-2.029-3.664-5.798 0-4.517 1.677-6.716 4.096-6.716.575 0 1.174.193 1.533.459v-5.387h1.868v17.272H63.21l-.144-.966h-.12c-.528.677-1.198 1.136-2.18 1.136zm-10.419-9.614v9.445h-1.868V16.96h1.868v1.063h.12c.335-.459 1.245-1.208 2.371-1.208 1.581 0 2.419.894 2.419 2.754v9.59h-1.892v-9.421c0-.918-.407-1.232-1.126-1.232-.79 0-1.461.604-1.892 1.208zm-4.191 6.691c0 1.16.12 2.174.216 2.754h-1.581a5.778 5.778 0 01-.168-.966h-.12c-.527.676-1.198 1.135-2.251 1.135-1.724 0-2.898-1.304-2.898-3.696 0-2.609 1.317-4.252 4.694-4.252h.263v-.725c0-1.594-.527-2.271-1.581-2.271-.958 0-1.772.507-2.395 1.063l-.359-1.667c.551-.459 1.653-.966 2.874-.966 2.132 0 3.305.918 3.305 3.865v5.726zm-1.844.362v-3.962h-.216c-2.323 0-2.826 1.039-2.826 2.609 0 1.401.455 2.319 1.413 2.319.647.001 1.294-.434 1.629-.966zm-8.191 2.392h-1.892v-6.184l-4.096-11.088h2.06l3.018 8.552L38.684 10.1h1.892l-4.455 12.948v6.111z"/><path fill="none" d="M0 0h125v40H0z"/></svg>